<svg width="50" height="34" viewBox="0 0 50 34" fill="none" xmlns="http://www.w3.org/2000/svg">
<g clip-path="url(#clip0_365_467)">
<path d="M47.4005 31.3916C43.9312 34.8728 38.3023 34.8728 34.843 31.3916L19.2062 15.7008C18.9162 15.3497 18.5863 15.0286 18.2364 14.7276C16.6867 13.3833 14.6571 12.5707 12.4475 12.5707C10.238 12.5707 8.04839 13.4435 6.46871 14.8982L12.4375 8.90882L18.7163 2.60843C22.1856 -0.872834 27.8044 -0.872834 31.2737 2.60843L37.5525 8.90881L47.3905 18.7808C50.8598 22.262 50.8598 27.9103 47.3905 31.3916L47.4005 31.3916Z" fill="url(#paint0_linear_365_467)"/>
<path d="M24.995 21.5196L19.0862 27.4488C19.0862 27.4488 19.0562 27.489 19.0362 27.509L18.4363 28.111C18.4363 28.111 18.3963 28.1511 18.3763 28.1611L15.167 31.3816C11.6877 34.8728 6.06879 34.8728 2.59948 31.3916C-0.869827 27.9103 -0.869828 22.2621 2.59948 18.7908L5.85883 15.5202C5.90882 15.4701 5.94881 15.4099 6.0088 15.3698L6.30874 15.0688C6.35873 15.0186 6.40872 14.9685 6.45871 14.9183C8.03839 13.4736 10.138 12.5908 12.4375 12.5908C14.7371 12.5908 16.6667 13.4034 18.2264 14.7477C18.5763 15.0387 18.8962 15.3698 19.1962 15.7209L24.995 21.5397L24.995 21.5196Z" fill="url(#paint1_linear_365_467)"/>
<path d="M16.5167 16.1221L15.107 14.7076C15.6169 15.139 16.0868 15.6105 16.5167 16.1221Z" fill="url(#paint2_linear_365_467)"/>
</g>
<defs>
<linearGradient id="paint0_linear_365_467" x1="43.0314" y1="36.4579" x2="21.5076" y2="10.376" gradientUnits="userSpaceOnUse">
<stop stop-color="#000069"/>
<stop offset="1" stop-color="#000069"/>
</linearGradient>
<linearGradient id="paint1_linear_365_467" x1="20.216" y1="10.4739" x2="3.11887" y2="35.6911" gradientUnits="userSpaceOnUse">
<stop stop-color="#010116"/>
<stop offset="1" stop-color="#000069"/>
</linearGradient>
<linearGradient id="paint2_linear_365_467" x1="15.097" y1="15.4098" x2="16.5167" y2="15.4098" gradientUnits="userSpaceOnUse">
<stop stop-color="#000069"/>
<stop offset="1" stop-color="#BC65D2"/>
</linearGradient>
<clipPath id="clip0_365_467">
<rect width="34" height="50" fill="white" transform="translate(0 34) rotate(-90)"/>
</clipPath>
</defs>
</svg>
