<svg width="39" height="39" viewBox="0 0 39 39" fill="none" xmlns="http://www.w3.org/2000/svg">
<path d="M28.1775 30.1275C27.7918 30.1275 27.4148 30.0131 27.0941 29.7989C26.7735 29.5846 26.5235 29.28 26.3759 28.9237C26.2283 28.5674 26.1897 28.1753 26.265 27.7971C26.3402 27.4188 26.5259 27.0714 26.7986 26.7986C27.0714 26.5259 27.4188 26.3402 27.7971 26.265C28.1753 26.1897 28.5674 26.2283 28.9237 26.3759C29.2801 26.5235 29.5846 26.7735 29.7989 27.0941C30.0131 27.4148 30.1275 27.7918 30.1275 28.1775C30.1275 28.6947 29.9221 29.1907 29.5564 29.5564C29.1907 29.9221 28.6947 30.1275 28.1775 30.1275ZM35.6525 26.195C35.6209 27.5433 35.3684 28.8772 34.905 30.1438C34.4918 31.2274 33.8487 32.2087 33.02 33.02C32.2153 33.8529 31.2318 34.492 30.1437 34.8888C28.8806 35.3662 27.5451 35.6245 26.195 35.6525C24.4725 35.75 23.92 35.75 19.5 35.75C15.08 35.75 14.5275 35.75 12.805 35.6525C11.4549 35.6245 10.1194 35.3662 8.85625 34.8888C7.77022 34.4879 6.78752 33.8495 5.98 33.02C5.14707 32.2153 4.50804 31.2318 4.11125 30.1438C3.63376 28.8806 3.37547 27.5451 3.3475 26.195C3.25 24.4725 3.25 23.92 3.25 19.5C3.25 15.08 3.25 14.5275 3.3475 12.805C3.37547 11.4549 3.63376 10.1194 4.11125 8.85625C4.50804 7.76822 5.14707 6.78466 5.98 5.98C6.78752 5.15054 7.77022 4.51205 8.85625 4.11125C10.1194 3.63376 11.4549 3.37547 12.805 3.3475C14.5275 3.25 15.08 3.25 19.5 3.25C23.92 3.25 24.4725 3.25 26.195 3.3475C27.5451 3.37547 28.8806 3.63376 30.1437 4.11125C31.2318 4.50804 32.2153 5.14707 33.02 5.98C33.8524 6.78831 34.496 7.77044 34.905 8.85625C35.3684 10.1228 35.6209 11.4567 35.6525 12.805C35.6525 14.5275 35.75 15.08 35.75 19.5C35.75 23.92 35.75 24.4725 35.6525 26.195ZM32.7275 13C32.7157 11.9685 32.5288 10.9465 32.175 9.9775C31.9155 9.27031 31.4988 8.63131 30.9562 8.10875C30.4292 7.57168 29.7915 7.1558 29.0875 6.89C28.1185 6.53615 27.0965 6.34933 26.065 6.3375C24.44 6.25625 23.8388 6.24 19.565 6.24C15.2913 6.24 14.69 6.24 13.065 6.3375C11.9939 6.31745 10.9275 6.48237 9.9125 6.825C9.2394 7.10438 8.63095 7.51922 8.125 8.04375C7.58564 8.56578 7.17412 9.20531 6.9225 9.9125C6.52577 10.8954 6.30572 11.9406 6.2725 13C6.2725 14.625 6.175 15.2262 6.175 19.5C6.175 23.7738 6.175 24.375 6.2725 26C6.27978 27.0545 6.47229 28.0996 6.84125 29.0875C7.12733 29.7734 7.56643 30.3848 8.125 30.875C8.6187 31.4337 9.22884 31.8775 9.9125 32.175C10.903 32.5324 11.947 32.7192 13 32.7275C14.625 32.7275 15.2262 32.825 19.5 32.825C23.7738 32.825 24.375 32.825 26 32.7275C27.0315 32.7157 28.0535 32.5288 29.0225 32.175C29.761 31.9009 30.4237 31.4554 30.9562 30.875C31.4888 30.3758 31.9049 29.7656 32.175 29.0875C32.5362 28.098 32.7231 27.0534 32.7275 26C32.8087 24.375 32.825 23.7738 32.825 19.5C32.825 15.2262 32.8087 14.625 32.7275 13ZM19.5 27.8363C17.8519 27.833 16.2418 27.3414 14.8731 26.4234C13.5043 25.5055 12.4384 24.2024 11.8099 22.6789C11.1814 21.1554 11.0187 19.4797 11.3422 17.8637C11.6657 16.2477 12.4609 14.7639 13.6274 13.5997C14.7939 12.4354 16.2793 11.6431 17.8959 11.3228C19.5125 11.0024 21.1878 11.1685 22.7101 11.7999C24.2324 12.4313 25.5334 13.4998 26.4487 14.8703C27.364 16.2409 27.8525 17.8519 27.8525 19.5C27.8546 20.5967 27.64 21.683 27.2208 22.6964C26.8016 23.7099 26.1862 24.6304 25.4099 25.4052C24.6337 26.1799 23.7119 26.7935 22.6977 27.2107C21.6834 27.628 20.5967 27.8405 19.5 27.8363ZM19.5 14.0888C18.4298 14.0888 17.3835 14.4061 16.4937 15.0007C15.6038 15.5953 14.9102 16.4404 14.5007 17.4292C14.0911 18.418 13.9839 19.506 14.1927 20.5557C14.4015 21.6054 14.9169 22.5696 15.6737 23.3263C16.4304 24.0831 17.3946 24.5985 18.4443 24.8073C19.494 25.0161 20.582 24.9089 21.5708 24.4993C22.5596 24.0898 23.4047 23.3962 23.9993 22.5063C24.5939 21.6165 24.9112 20.5702 24.9112 19.5C24.9112 18.7894 24.7713 18.0857 24.4993 17.4292C24.2274 16.7727 23.8288 16.1761 23.3263 15.6737C22.8239 15.1712 22.2273 14.7726 21.5708 14.5007C20.9143 14.2287 20.2106 14.0888 19.5 14.0888Z" fill="white"/>
</svg>
